<svg width="151" height="59" viewBox="0 0 151 59" fill="none" xmlns="http://www.w3.org/2000/svg">
<path fill-rule="evenodd" clip-rule="evenodd" d="M13.0552 51.7235C17.3811 54.7746 22.4817 56.5193 27.7517 56.7657C28.1822 56.7859 28.6139 56.796 29.0464 56.796C29.0473 56.796 29.0481 56.7968 29.0481 56.7977C29.0481 56.7986 29.0473 56.7994 29.0464 56.7994C28.9452 56.7994 28.8441 56.7988 28.743 56.7977C28.4119 56.7941 28.0814 56.7845 27.7516 56.7691C22.4809 56.5226 17.3797 54.7777 13.0532 51.7262C8.37284 48.4252 4.82847 43.7568 2.90632 38.3616C0.984162 32.9664 0.778388 27.1087 2.31722 21.5919C3.85606 16.0751 7.06412 11.1695 11.5013 7.54821C15.9385 3.92686 21.3875 1.76711 27.1008 1.36522C32.814 0.963325 38.5117 2.33899 43.4122 5.30348C48.3127 8.26798 52.1759 12.6761 54.4719 17.9231C56.5943 22.7734 57.2814 28.1209 56.4664 33.334C56.4154 33.6603 56.3585 33.986 56.2957 34.3111C56.2825 34.3794 56.2691 34.4476 56.2554 34.5159C56.2492 34.5468 56.2429 34.5777 56.2366 34.6086C56.2364 34.6095 56.2355 34.6101 56.2346 34.6099C56.2337 34.6097 56.2331 34.6088 56.2333 34.6079C56.32 34.1842 56.3965 33.7592 56.4631 33.3334C57.278 28.1209 56.5909 22.7741 54.4688 17.9245C52.1731 12.6781 48.3103 8.2705 43.4104 5.30636C38.5106 2.34221 32.8136 0.966717 27.101 1.36855C21.3884 1.7704 15.9401 3.9299 11.5034 7.5508C7.06677 11.1717 3.8591 16.0767 2.32045 21.5928C0.781802 27.1089 0.987551 32.966 2.90947 38.3605C4.83139 43.7551 8.37534 48.4228 13.0552 51.7235ZM12.3058 52.786C17.2044 56.2409 23.0519 58.0958 29.0463 58.0962C29.7622 58.0962 30.3449 57.5161 30.3449 56.7977C30.3449 56.0792 29.7622 55.4993 29.0465 55.4992C23.588 55.4989 18.2632 53.8099 13.8026 50.6638C9.34147 47.5174 5.96315 43.0677 4.13105 37.9253C2.29895 32.7829 2.10282 27.1995 3.56956 21.9412C5.0363 16.6829 8.09406 12.0072 12.3234 8.55547C16.5527 5.10378 21.7464 3.04521 27.192 2.66215C32.6376 2.27908 38.0683 3.5903 42.7392 6.41592C47.4101 9.24153 51.0923 13.4431 53.2808 18.4443C55.469 23.4451 56.0565 29.0003 54.9628 34.3481C54.8194 35.0493 55.2708 35.7364 55.9747 35.8804C56.6788 36.0244 57.3637 35.5696 57.5071 34.8684C58.7082 28.9956 58.0629 22.895 55.6599 17.4033C53.2566 11.9111 49.2129 7.29695 44.0834 4.19392C38.9539 1.0909 32.99 -0.349049 27.0098 0.0716202C21.0295 0.492289 15.3259 2.75297 10.6814 6.54354C6.03683 10.3341 2.67886 15.4689 1.06812 21.2435C-0.542626 27.018 -0.327236 33.1495 1.68474 38.7969C3.69671 44.4442 7.40671 49.3307 12.3058 52.786ZM38.2034 37.6328V55.5544C38.2034 56.2806 38.3503 56.7734 38.6443 57.0328C38.9555 57.2921 39.4656 57.4218 40.1745 57.4218V57.9665C39.8805 57.9492 39.431 57.9319 38.8258 57.9146C38.2379 57.88 37.6414 57.8627 37.0363 57.8627C36.4484 57.8627 35.8519 57.88 35.2467 57.9146C34.6415 57.9319 34.192 57.9492 33.898 57.9665V57.4218C34.6069 57.4218 35.1084 57.2921 35.4023 57.0328C35.7135 56.7734 35.8691 56.2806 35.8691 55.5544V40.7451C35.8691 39.967 35.7308 39.3964 35.4542 39.0333C35.1775 38.653 34.6588 38.4628 33.898 38.4628V37.9181C34.4513 37.97 34.9873 37.9959 35.506 37.9959C36.0075 37.9959 36.483 37.97 36.9325 37.9181C37.3994 37.8489 37.823 37.7538 38.2034 37.6328ZM44.4573 38.1256C44.9069 38.1256 45.2959 38.2899 45.6244 38.6184C45.953 38.9469 46.1172 39.3359 46.1172 39.7855C46.1172 40.235 45.953 40.6241 45.6244 40.9526C45.2959 41.2811 44.9069 41.4454 44.4573 41.4454C44.0078 41.4454 43.6187 41.2811 43.2902 40.9526C42.9617 40.6241 42.7974 40.235 42.7974 39.7855C42.7974 39.3359 42.9617 38.9469 43.2902 38.6184C43.6187 38.2899 44.0078 38.1256 44.4573 38.1256ZM45.806 44.3242V55.5544C45.806 56.2806 45.953 56.7734 46.2469 57.0328C46.5581 57.2921 47.0682 57.4218 47.7771 57.4218V57.9665C47.4832 57.9492 47.0336 57.9319 46.4285 57.9146C45.8406 57.88 45.244 57.8627 44.6389 57.8627C44.051 57.8627 43.4545 57.88 42.8493 57.9146C42.2441 57.9319 41.7946 57.9492 41.5006 57.9665V57.4218C42.2096 57.4218 42.711 57.2921 43.0049 57.0328C43.3162 56.7734 43.4718 56.2806 43.4718 55.5544V47.4365C43.4718 46.6585 43.3334 46.0879 43.0568 45.7248C42.7802 45.3444 42.2614 45.1542 41.5006 45.1542V44.6095C42.0539 44.6614 42.59 44.6873 43.1087 44.6873C43.6101 44.6873 44.0856 44.6614 44.5351 44.6095C45.002 44.5404 45.4256 44.4453 45.806 44.3242ZM60.9517 45.1283V44.6095C60.675 44.6268 60.3724 44.6441 60.0439 44.6614C59.7327 44.6787 59.3782 44.6873 58.9806 44.6873H58.2544C58.0469 44.6701 57.8307 44.6614 57.606 44.6614C57.3812 44.6441 57.1132 44.6268 56.802 44.6095V45.1283C57.4244 45.1628 57.8826 45.2666 58.1765 45.4395C58.4878 45.6124 58.6607 45.8717 58.6953 46.2176C58.7471 46.5461 58.6607 46.9956 58.4359 47.5662L55.5802 55.0562L52.3929 47.1772C52.1335 46.5028 52.0471 46.0274 52.1335 45.7507C52.2373 45.4741 52.4534 45.3098 52.7819 45.2579C53.1277 45.1888 53.5168 45.1542 53.949 45.1542V44.6095C53.4303 44.6441 52.8684 44.6701 52.2632 44.6873C51.6753 44.7046 51.1134 44.7133 50.5774 44.7133C50.1451 44.7133 49.7388 44.7046 49.3584 44.6873C48.9953 44.6528 48.6408 44.6268 48.295 44.6095V45.1542C48.4852 45.1542 48.71 45.232 48.9693 45.3876C49.246 45.5259 49.5226 45.9323 49.7993 46.6066L54.5715 58.0961H54.8049H55.0124L59.2659 46.9438C59.5079 46.2867 59.7673 45.8285 60.0439 45.5692C60.3206 45.3098 60.6232 45.1628 60.9517 45.1283ZM67.8627 44.2464C69.3843 44.2464 70.5687 44.7133 71.416 45.647C72.2805 46.5634 72.7127 47.9985 72.7127 49.9523H64.6045C64.5779 50.1762 64.5574 50.4183 64.543 50.6785C64.5257 50.9897 64.517 51.301 64.517 51.6122C64.517 52.788 64.7072 53.7994 65.0876 54.6467C65.468 55.4939 65.9608 56.1423 66.566 56.5919C67.1884 57.0241 67.8282 57.2403 68.4852 57.2403C69.0039 57.2403 69.4967 57.1625 69.9635 57.0068C70.4304 56.8339 70.8627 56.5573 71.2603 56.1769C71.658 55.7965 72.0038 55.2864 72.2978 54.6467L72.8165 54.8542C72.6263 55.4248 72.3151 55.9781 71.8828 56.5141C71.4505 57.0501 70.9059 57.491 70.2488 57.8368C69.5918 58.1653 68.831 58.3296 67.9665 58.3296C66.7216 58.3296 65.6496 58.0443 64.7505 57.4737C63.8686 56.9031 63.1857 56.1164 62.7015 55.1135C62.2347 54.0934 62.0013 52.9263 62.0013 51.6122C62.0013 50.0906 62.2433 48.7852 62.7275 47.6959C63.2116 46.5893 63.8946 45.7421 64.7764 45.1542C65.6582 44.549 66.687 44.2464 67.8627 44.2464ZM70.2229 49.4595H64.5632C64.7014 47.8631 65.0578 46.6873 65.6323 45.9323C66.2547 45.1369 66.9636 44.7392 67.759 44.7392C68.3469 44.7392 68.8224 44.9553 69.1855 45.3876C69.5659 45.8199 69.8425 46.3991 70.0154 47.1253C70.1883 47.8342 70.2575 48.6123 70.2229 49.4595ZM92.8618 39.7595C92.1702 39.4137 91.2624 39.2408 90.1385 39.2408C88.5305 39.2408 87.0954 39.6472 85.8332 40.4598C84.5883 41.2552 83.6027 42.3877 82.8765 43.8574C82.1503 45.3271 81.7872 47.0734 81.7872 49.0964C81.7872 51.0157 82.1244 52.6669 82.7987 54.0502C83.4731 55.4334 84.4413 56.4968 85.7035 57.2403C86.983 57.9665 88.5132 58.3296 90.2942 58.3296C91.1414 58.3296 91.8849 58.2085 92.5246 57.9665C93.1644 57.7071 93.7696 57.3613 94.3401 56.929C94.5995 56.7388 94.7811 56.6178 94.8848 56.5659C94.9885 56.5141 95.0923 56.4881 95.196 56.4881C95.4208 56.4881 95.5851 56.661 95.6888 57.0068C95.8098 57.3526 95.879 57.6725 95.8963 57.9665H96.415V52.8312C96.415 52.1914 96.4409 51.7159 96.4928 51.4047C96.562 51.0935 96.6917 50.886 96.8819 50.7823C97.072 50.6785 97.3573 50.618 97.7377 50.6007V50.082C97.4265 50.0993 97.0375 50.1166 96.5706 50.1339C96.1211 50.1511 95.611 50.1598 95.0404 50.1598H93.7696C93.32 50.1425 92.8877 50.1339 92.4728 50.1339C92.0578 50.1166 91.6947 50.0993 91.3835 50.082V50.6007C92.1097 50.618 92.6543 50.6872 93.0174 50.8082C93.3978 50.9292 93.6572 51.1626 93.7955 51.5085C93.9338 51.8543 94.003 52.3816 94.003 53.0905V55.5804C94.003 55.9089 93.9598 56.1769 93.8733 56.3844C93.7869 56.5746 93.5794 56.7821 93.2508 57.0068C92.9915 57.1797 92.6284 57.3613 92.1615 57.5515C91.712 57.7244 91.176 57.8108 90.5535 57.8108C88.4441 57.8108 86.8879 57.0933 85.8851 55.6582C84.8822 54.2058 84.3808 51.9234 84.3808 48.8111C84.3808 47.4106 84.5105 46.157 84.7698 45.0504C85.0465 43.9266 85.4355 42.9669 85.937 42.1716C86.4384 41.3762 87.0349 40.771 87.7265 40.3561C88.4354 39.9238 89.2222 39.7077 90.0867 39.7077C90.9512 39.7077 91.7898 39.8892 92.6024 40.2523C93.4151 40.5981 94.0721 41.0909 94.5736 41.7307C94.9713 42.2148 95.2565 42.794 95.4294 43.4684C95.6024 44.1427 95.7493 44.843 95.8704 45.5692H96.4669C96.4669 44.0649 96.4755 42.8545 96.4928 41.9381C96.5101 41.0218 96.536 40.2437 96.5706 39.6039H95.9741C95.8704 40.6587 95.6542 41.186 95.3257 41.186C95.2047 41.186 95.0318 41.0996 94.807 40.9267C94.2018 40.4771 93.5534 40.0881 92.8618 39.7595ZM107.441 44.2464C107.908 44.2464 108.314 44.3415 108.66 44.5317C109.023 44.7219 109.3 44.9726 109.49 45.2839C109.697 45.5778 109.801 45.915 109.801 46.2954C109.801 46.7276 109.663 47.108 109.386 47.4365C109.127 47.7651 108.772 47.9293 108.323 47.9293C107.96 47.9293 107.64 47.8169 107.363 47.5921C107.086 47.3501 106.948 47.0129 106.948 46.5807C106.948 46.2521 107.035 45.9755 107.208 45.7507C107.398 45.5086 107.605 45.3185 107.83 45.1801C107.709 45.0072 107.527 44.9208 107.285 44.9208C106.749 44.9208 106.257 45.085 105.807 45.4135C105.357 45.7248 104.977 46.1311 104.666 46.6325C104.355 47.134 104.113 47.67 103.94 48.2405C103.767 48.7938 103.68 49.3126 103.68 49.7967V55.2951C103.68 56.1423 103.922 56.7129 104.406 57.0068C104.908 57.2835 105.582 57.4218 106.429 57.4218V57.9665C106.032 57.9492 105.47 57.9319 104.744 57.9146C104.017 57.88 103.248 57.8627 102.435 57.8627C101.847 57.8627 101.26 57.88 100.672 57.9146C100.101 57.9319 99.6689 57.9492 99.3749 57.9665V57.4218C100.084 57.4218 100.585 57.2921 100.879 57.0328C101.19 56.7734 101.346 56.2806 101.346 55.5544V47.4365C101.346 46.6585 101.208 46.0879 100.931 45.7248C100.654 45.3444 100.136 45.1542 99.3749 45.1542V44.6095C99.9282 44.6614 100.464 44.6873 100.983 44.6873C101.484 44.6873 101.96 44.6614 102.409 44.6095C102.876 44.5404 103.3 44.4453 103.68 44.3242V47.5662C103.87 47.0648 104.138 46.5634 104.484 46.0619C104.847 45.5432 105.28 45.111 105.781 44.7652C106.282 44.4193 106.836 44.2464 107.441 44.2464ZM120.273 45.647C119.426 44.7133 118.242 44.2464 116.72 44.2464C115.545 44.2464 114.516 44.549 113.634 45.1542C112.752 45.7421 112.069 46.5893 111.585 47.6959C111.101 48.7852 110.859 50.0906 110.859 51.6122C110.859 52.9263 111.092 54.0934 111.559 55.1135C112.043 56.1164 112.726 56.9031 113.608 57.4737C114.507 58.0443 115.579 58.3296 116.824 58.3296C117.689 58.3296 118.449 58.1653 119.106 57.8368C119.763 57.491 120.308 57.0501 120.74 56.5141C121.173 55.9781 121.484 55.4248 121.674 54.8542L121.155 54.6467C120.861 55.2864 120.516 55.7965 120.118 56.1769C119.72 56.5573 119.288 56.8339 118.821 57.0068C118.354 57.1625 117.861 57.2403 117.343 57.2403C116.686 57.2403 116.046 57.0241 115.423 56.5919C114.818 56.1423 114.326 55.4939 113.945 54.6467C113.565 53.7994 113.375 52.788 113.375 51.6122C113.375 51.301 113.383 50.9897 113.401 50.6785C113.415 50.4183 113.435 50.1762 113.462 49.9523H121.57C121.57 47.9985 121.138 46.5634 120.273 45.647ZM113.421 49.4595H119.08C119.115 48.6123 119.046 47.8342 118.873 47.1253C118.7 46.3991 118.423 45.8199 118.043 45.3876C117.68 44.9553 117.204 44.7392 116.617 44.7392C115.821 44.7392 115.112 45.1369 114.49 45.9323C113.915 46.6873 113.559 47.8631 113.421 49.4595ZM129.84 44.2464C131.362 44.2464 132.546 44.7133 133.393 45.647C134.258 46.5634 134.69 47.9985 134.69 49.9523H126.582C126.555 50.1762 126.535 50.4183 126.52 50.6785C126.503 50.9897 126.494 51.301 126.494 51.6122C126.494 52.788 126.685 53.7994 127.065 54.6467C127.445 55.4939 127.938 56.1423 128.543 56.5919C129.166 57.0241 129.806 57.2403 130.463 57.2403C130.981 57.2403 131.474 57.1625 131.941 57.0068C132.408 56.8339 132.84 56.5573 133.238 56.1769C133.635 55.7965 133.981 55.2864 134.275 54.6467L134.794 54.8542C134.604 55.4248 134.292 55.9781 133.86 56.5141C133.428 57.0501 132.883 57.491 132.226 57.8368C131.569 58.1653 130.808 58.3296 129.944 58.3296C128.699 58.3296 127.627 58.0443 126.728 57.4737C125.846 56.9031 125.163 56.1164 124.679 55.1135C124.212 54.0934 123.979 52.9263 123.979 51.6122C123.979 50.0906 124.221 48.7852 124.705 47.6959C125.189 46.5893 125.872 45.7421 126.754 45.1542C127.636 44.549 128.664 44.2464 129.84 44.2464ZM132.2 49.4595H126.541C126.679 47.8631 127.035 46.6873 127.61 45.9323C128.232 45.1369 128.941 44.7392 129.736 44.7392C130.324 44.7392 130.8 44.9553 131.163 45.3876C131.543 45.8199 131.82 46.3991 131.993 47.1253C132.166 47.8342 132.235 48.6123 132.2 49.4595ZM147.006 44.5058C146.574 44.3329 146.029 44.2464 145.372 44.2464C144.49 44.2464 143.643 44.4799 142.83 44.9467C142.035 45.3963 141.412 46.2089 140.963 47.3847V44.3242C140.583 44.4453 140.159 44.5404 139.692 44.6095C139.243 44.6614 138.767 44.6873 138.266 44.6873C137.747 44.6873 137.211 44.6614 136.658 44.6095V45.1542C137.418 45.1542 137.937 45.3444 138.214 45.7248C138.49 46.0879 138.629 46.6585 138.629 47.4365V55.5544C138.629 56.2806 138.473 56.7734 138.162 57.0328C137.868 57.2921 137.367 57.4218 136.658 57.4218V57.9665C136.952 57.9492 137.401 57.9319 138.006 57.9146C138.611 57.88 139.199 57.8627 139.77 57.8627C140.34 57.8627 140.894 57.88 141.43 57.9146C141.983 57.9319 142.398 57.9492 142.675 57.9665V57.4218C142.052 57.4218 141.611 57.2921 141.352 57.0328C141.093 56.7734 140.963 56.2806 140.963 55.5544V49.7967C140.963 48.9149 141.11 48.1195 141.404 47.4106C141.715 46.6844 142.139 46.1138 142.675 45.6988C143.228 45.2839 143.868 45.0764 144.594 45.0764C145.216 45.0764 145.675 45.2147 145.969 45.4914C146.28 45.768 146.479 46.1311 146.565 46.5807C146.652 47.0302 146.695 47.523 146.695 48.059V55.5544C146.695 56.2806 146.565 56.7734 146.306 57.0328C146.046 57.2921 145.605 57.4218 144.983 57.4218V57.9665C145.26 57.9492 145.666 57.9319 146.202 57.9146C146.755 57.88 147.317 57.8627 147.888 57.8627C148.458 57.8627 149.046 57.88 149.651 57.9146C150.257 57.9319 150.706 57.9492 151 57.9665V57.4218C150.291 57.4218 149.781 57.2921 149.47 57.0328C149.176 56.7734 149.029 56.2806 149.029 55.5544V48.6296C149.029 47.7478 148.96 47.0475 148.821 46.5288C148.683 46.0101 148.45 45.5778 148.121 45.232C147.827 44.9208 147.456 44.6787 147.006 44.5058Z" fill="#5565FF"/>
</svg>
